<?xml version="1.0" encoding="utf-8"?>
<!-- Generator: Adobe Illustrator 19.0.0, SVG Export Plug-In . SVG Version: 6.00 Build 0)  -->
<svg version="1.1" id="Layer_1" xmlns="http://www.w3.org/2000/svg" xmlns:xlink="http://www.w3.org/1999/xlink" x="0px" y="0px"
	 viewBox="0 0 595.3 841.9" style="enable-background:new 0 0 595.3 841.9;" xml:space="preserve">
<style type="text/css">
	.st0{opacity:0.56;}
	.st1{fill:#E53935;}
	.st2{fill:#FDD835;}
	.st3{fill:#F7A827;}
	.st4{opacity:0.32;}
	.st5{fill:#FFFFFF;}
</style>
<g id="XMLID_248_" class="st0">
	<defs>
		<circle id="XMLID_249_" class="st0" cx="297.5" cy="391.4" r="389.5"/>
	</defs>
	<clipPath id="XMLID_2_">
		<use xlink:href="#XMLID_249_"  style="overflow:visible;"/>
	</clipPath>
</g>
<g id="XMLID_205_">
	<polygon id="XMLID_247_" class="st1" points="254.5,320.2 297.5,701.4 340.4,320.2 	"/>
	<g id="XMLID_244_">
		<path id="XMLID_246_" class="st1" d="M476.3,439.6c-81.7,35.6-157.1,130.3-166.5,261.8c34.4-102.3,107-171.8,184-198.1
			C485,484.5,478.8,463.1,476.3,439.6z"/>
		<path id="XMLID_245_" class="st1" d="M118.6,439.6c81.7,35.6,157.1,130.3,166.5,261.8c-34.4-102.3-107-171.8-184-198.1
			C109.9,484.5,116.1,463.1,118.6,439.6z"/>
	</g>
	<g id="XMLID_221_">
		<g id="XMLID_233_">
			<polygon id="XMLID_243_" class="st2" points="545.5,374.9 635.7,359.5 524.8,440 			"/>
			<polygon id="XMLID_242_" class="st3" points="635.7,359.5 593.1,440.5 524.8,440 			"/>
			<polygon id="XMLID_241_" class="st2" points="593.1,440.5 635.6,521.5 524.8,440 			"/>
			<polygon id="XMLID_240_" class="st2" points="468.4,399.9 481.7,309.3 524.8,440 			"/>
			<polygon id="XMLID_239_" class="st3" points="481.7,309.3 545.5,374.9 524.8,440 			"/>
			<polygon id="XMLID_238_" class="st3" points="481.4,571.5 468.4,480.9 524.8,440 			"/>
			<polygon id="XMLID_237_" class="st3" points="524.8,440 386.3,440.3 468.4,399.9 			"/>
			<polygon id="XMLID_236_" class="st3" points="635.6,521.5 545.4,506 524.8,440 			"/>
			<polygon id="XMLID_235_" class="st2" points="468.4,480.9 386.3,440.3 524.8,440 			"/>
			<polygon id="XMLID_234_" class="st2" points="545.4,506 481.4,571.5 524.8,440 			"/>
		</g>
		<g id="XMLID_222_">
			<polygon id="XMLID_232_" class="st2" points="49.4,374.9 -40.8,359.5 70.1,440 			"/>
			<polygon id="XMLID_231_" class="st3" points="-40.8,359.5 1.8,440.5 70.1,440 			"/>
			<polygon id="XMLID_230_" class="st2" points="1.8,440.5 -40.7,521.5 70.1,440 			"/>
			<polygon id="XMLID_229_" class="st2" points="126.5,399.9 113.3,309.3 70.1,440 			"/>
			<polygon id="XMLID_228_" class="st3" points="113.3,309.3 49.4,374.9 70.1,440 			"/>
			<polygon id="XMLID_227_" class="st3" points="113.5,571.5 126.5,480.9 70.1,440 			"/>
			<polygon id="XMLID_226_" class="st3" points="70.1,440 208.6,440.3 126.5,399.9 			"/>
			<polygon id="XMLID_225_" class="st3" points="-40.7,521.5 49.5,506 70.1,440 			"/>
			<polygon id="XMLID_224_" class="st2" points="126.5,480.9 208.6,440.3 70.1,440 			"/>
			<polygon id="XMLID_223_" class="st2" points="49.5,506 113.5,571.5 70.1,440 			"/>
		</g>
	</g>
	<g id="XMLID_219_" class="st4">
		<polygon id="XMLID_220_" class="st5" points="254.5,320.2 297.5,701.4 297.5,320.2 		"/>
	</g>
	<g id="XMLID_208_">
		<polygon id="XMLID_218_" class="st2" points="351,181.2 297.5,72.8 297.5,253.8 		"/>
		<polygon id="XMLID_217_" class="st3" points="297.5,72.8 244,181.2 297.5,253.8 		"/>
		<polygon id="XMLID_216_" class="st2" points="244,181.2 124.3,198.6 297.5,253.8 		"/>
		<polygon id="XMLID_215_" class="st2" points="384,282.9 470.6,198.6 297.5,253.8 		"/>
		<polygon id="XMLID_214_" class="st3" points="470.6,198.6 351,181.2 297.5,253.8 		"/>
		<polygon id="XMLID_213_" class="st3" points="190.5,402.1 297.5,345.8 297.5,253.8 		"/>
		<polygon id="XMLID_212_" class="st3" points="297.5,253.8 404.5,402.1 384,282.9 		"/>
		<polygon id="XMLID_211_" class="st3" points="124.3,198.6 210.9,282.9 297.5,253.8 		"/>
		<polygon id="XMLID_210_" class="st2" points="297.5,345.8 404.5,402.1 297.5,253.8 		"/>
		<polygon id="XMLID_209_" class="st2" points="210.9,282.9 190.5,402.1 297.5,253.8 		"/>
	</g>
	<rect id="XMLID_207_" x="223.4" y="647.7" class="st1" width="153.2" height="62.3"/>
	<rect id="XMLID_206_" x="204.7" y="678.8" class="st2" width="190.5" height="31.2"/>
</g>
</svg>
