<?xml version="1.0" encoding="utf-8"?>
<!-- Generator: Adobe Illustrator 19.0.0, SVG Export Plug-In . SVG Version: 6.00 Build 0)  -->
<svg version="1.1" id="Layer_1" xmlns="http://www.w3.org/2000/svg" xmlns:xlink="http://www.w3.org/1999/xlink" x="0px" y="0px"
	 viewBox="0 0 595.3 841.9" style="enable-background:new 0 0 595.3 841.9;" xml:space="preserve">
<style type="text/css">
	.st0{fill:#185FAA;}
	.st1{fill:#2D6DB5;}
	.st2{fill:#FFD34F;}
	.st3{fill:#F2BB4A;}
</style>
<g id="XMLID_15_">
	<rect id="XMLID_13_" x="133.2" y="63.1" class="st0" width="323.6" height="104.6"/>
	
		<rect id="XMLID_12_" x="182.7" y="226" transform="matrix(0.4778 -0.8785 0.8785 0.4778 -48.3639 518.8759)" class="st1" width="459.1" height="148.2"/>
	
		<rect id="XMLID_11_" x="-51.8" y="226" transform="matrix(-0.4778 -0.8785 0.8785 -0.4778 -0.9615 599.6617)" class="st1" width="459.1" height="148.2"/>
	<circle id="XMLID_10_" class="st2" cx="295" cy="516.9" r="197.2"/>
	<g id="XMLID_23_">
		<path id="XMLID_24_" class="st3" d="M295,685.1c-92.7,0-168.2-75.5-168.2-168.2S202.3,348.7,295,348.7
			c92.7,0,168.2,75.5,168.2,168.2S387.7,685.1,295,685.1z M295,361.7c-85.6,0-155.2,69.6-155.2,155.2S209.4,672,295,672
			c85.6,0,155.2-69.6,155.2-155.2S380.6,361.7,295,361.7z"/>
	</g>
	<polygon id="XMLID_7_" class="st3" points="295,407.9 319.5,483.2 398.6,483.2 334.6,529.7 359,605 295,558.5 231,605 255.4,529.7 
		191.4,483.2 270.5,483.2 	"/>
	<polygon id="XMLID_6_" class="st3" points="452.3,699.2 452.3,679.2 441.1,679.2 441.1,699.2 421.1,699.2 421.1,710.4 441.1,710.4 
		441.1,730.4 452.3,730.4 452.3,710.4 472.3,710.4 472.3,699.2 	"/>
	<polygon id="XMLID_5_" class="st2" points="79.5,381.5 79.5,365.6 70.7,365.6 70.7,381.5 54.8,381.5 54.8,390.3 70.7,390.3 
		70.7,406.1 79.5,406.1 79.5,390.3 95.4,390.3 95.4,381.5 	"/>
	<circle id="XMLID_4_" class="st3" cx="54.6" cy="495.1" r="11.4"/>
	<circle id="XMLID_3_" class="st2" cx="93.7" cy="632.4" r="13"/>
	<circle id="XMLID_2_" class="st3" cx="121.8" cy="679.2" r="17.4"/>
	<circle id="XMLID_1_" class="st2" cx="551.1" cy="519.4" r="21"/>
</g>
</svg>
