<?xml version="1.0" encoding="utf-8"?>
<!-- Generator: Adobe Illustrator 19.0.0, SVG Export Plug-In . SVG Version: 6.00 Build 0)  -->
<svg version="1.1" id="Layer_1" xmlns="http://www.w3.org/2000/svg" xmlns:xlink="http://www.w3.org/1999/xlink" x="0px" y="0px"
	 viewBox="0 0 595.3 841.9" style="enable-background:new 0 0 595.3 841.9;" xml:space="preserve">
<style type="text/css">
	.st0{fill:#F7A827;}
	.st1{fill:#5EC2D7;}
	.st2{fill:#3EBCD3;}
	.st3{fill:#FDD835;}
	.st4{fill:#EA5351;}
	.st5{fill:#E53935;}
</style>
<g id="XMLID_19_">
	<rect id="XMLID_17_" x="245.2" y="433.7" class="st0" width="104.3" height="66.4"/>
	<g id="XMLID_32_">
		<polygon id="XMLID_16_" class="st1" points="366.6,792.6 228,792.6 193.1,466.9 401.6,466.9 		"/>
		<g id="XMLID_35_">
			<polygon id="XMLID_15_" class="st2" points="401.6,466.9 366.6,792.6 297.3,792.6 297.3,466.9 			"/>
			<polygon id="XMLID_14_" class="st1" points="193.1,466.9 297.3,466.9 297.3,792.6 228,792.6 			"/>
		</g>
		<rect id="XMLID_13_" x="213" y="782.1" class="st0" width="168.7" height="21.1"/>
		<polygon id="XMLID_12_" class="st2" points="399,803.3 195.6,803.3 188.6,835 406,835 		"/>
	</g>
	<polygon id="XMLID_11_" class="st3" points="147.4,113.3 245.2,433.7 349.4,433.7 447.2,113.3 297.3,377.8 	"/>
	<g id="XMLID_20_">
		<polygon id="XMLID_10_" class="st4" points="251,98.2 297.3,4.4 297.3,161.1 		"/>
		<polygon id="XMLID_9_" class="st5" points="297.3,4.4 343.6,98.2 297.3,161.1 		"/>
		<polygon id="XMLID_8_" class="st4" points="343.6,98.2 447.2,113.3 297.3,161.1 		"/>
		<polygon id="XMLID_7_" class="st4" points="222.4,186.3 147.4,113.3 297.3,161.1 		"/>
		<polygon id="XMLID_6_" class="st5" points="147.4,113.3 251,98.2 297.3,161.1 		"/>
		<polygon id="XMLID_5_" class="st5" points="389.9,289.5 297.3,240.8 297.3,161.1 		"/>
		<polygon id="XMLID_4_" class="st5" points="297.3,161.1 204.7,289.5 222.4,186.3 		"/>
		<polygon id="XMLID_3_" class="st5" points="447.2,113.3 372.2,186.3 297.3,161.1 		"/>
		<polygon id="XMLID_2_" class="st4" points="297.3,240.8 204.7,289.5 297.3,161.1 		"/>
		<polygon id="XMLID_1_" class="st4" points="372.2,186.3 389.9,289.5 297.3,161.1 		"/>
	</g>
</g>
</svg>
