<?xml version="1.0" encoding="utf-8"?>
<!-- Generator: Adobe Illustrator 19.0.0, SVG Export Plug-In . SVG Version: 6.00 Build 0)  -->
<svg version="1.1" id="Layer_1" xmlns="http://www.w3.org/2000/svg" xmlns:xlink="http://www.w3.org/1999/xlink" x="0px" y="0px"
	 viewBox="0 0 595.3 841.9" style="enable-background:new 0 0 595.3 841.9;" xml:space="preserve">
<style type="text/css">
	.st0{fill:#EC6669;}
	.st1{fill:#FFD34F;}
	.st2{fill:#F2BB4A;}
</style>
<g id="XMLID_15_">
	<polygon id="XMLID_13_" class="st0" points="439.5,408.8 439.5,757.5 308.1,626.1 176.7,757.5 176.7,408.8 	"/>
	<circle id="XMLID_12_" class="st1" cx="308.1" cy="280.2" r="235.2"/>
	<g id="XMLID_25_">
		<path id="XMLID_26_" class="st2" d="M308.1,480.9c-110.6,0-200.6-90-200.6-200.6c0-110.6,90-200.6,200.6-200.6
			s200.6,90,200.6,200.6C508.7,390.9,418.7,480.9,308.1,480.9z M308.1,95.2c-102,0-185.1,83-185.1,185.1c0,102,83,185.1,185.1,185.1
			c102,0,185.1-83,185.1-185.1C493.1,178.2,410.1,95.2,308.1,95.2z"/>
	</g>
	<polygon id="XMLID_9_" class="st2" points="308.1,150.3 337.2,240.1 431.6,240.1 355.3,295.6 384.4,385.4 308.1,329.9 231.7,385.4 
		260.9,295.6 184.5,240.1 278.9,240.1 	"/>
	<circle id="XMLID_8_" class="st1" cx="94" cy="494.3" r="21.1"/>
	<circle id="XMLID_7_" class="st2" cx="42.1" cy="385.8" r="14.5"/>
	<polygon id="XMLID_6_" class="st1" points="287.3,751.5 265.4,751.5 265.4,729.5 253.3,729.5 253.3,751.5 231.4,751.5 231.4,763.6 
		253.3,763.6 253.3,785.5 265.4,785.5 265.4,763.6 287.3,763.6 	"/>
	<circle id="XMLID_5_" class="st2" cx="303.5" cy="713.7" r="12.7"/>
	<circle id="XMLID_4_" class="st1" cx="84.2" cy="90.7" r="17.3"/>
	<circle id="XMLID_3_" class="st1" cx="500.6" cy="59.2" r="14.2"/>
	<polygon id="XMLID_2_" class="st2" points="554,116.6 539.4,116.6 539.4,102.1 531.4,102.1 531.4,116.6 516.8,116.6 516.8,124.7 
		531.4,124.7 531.4,139.3 539.4,139.3 539.4,124.7 554,124.7 	"/>
	<circle id="XMLID_1_" class="st2" cx="485.8" cy="657.5" r="11.5"/>
</g>
</svg>
